<svg xmlns="http://www.w3.org/2000/svg" xmlns:xlink="http://www.w3.org/1999/xlink" width="500" zoomAndPan="magnify" viewBox="0 0 375 374.999991" height="500" preserveAspectRatio="xMidYMid meet" version="1.0"><defs><g/><clipPath id="aa4b6f1257"><path d="M 124.851562 129.183594 L 250.101562 129.183594 L 250.101562 305.433594 L 124.851562 305.433594 Z M 124.851562 129.183594 " clip-rule="nonzero"/></clipPath><clipPath id="ce1f56420e"><path d="M 141.917969 153.402344 L 233.417969 153.402344 L 233.417969 235.902344 L 141.917969 235.902344 Z M 141.917969 153.402344 " clip-rule="nonzero"/></clipPath></defs><rect x="-37.5" width="450" fill="#ffffff" y="-37.499999" height="449.999989" fill-opacity="1"/><rect x="-37.5" width="450" fill="#ff4546" y="-37.499999" height="449.999989" fill-opacity="1"/><g clip-path="url(#aa4b6f1257)"><path fill="#ffffff" d="M 239.5 226.972656 C 246.222656 216.992188 250.152344 204.96875 250.152344 192.015625 C 250.152344 157.414062 222.101562 129.371094 187.5 129.371094 C 152.894531 129.371094 124.84375 157.414062 124.84375 192.015625 C 124.84375 204.96875 128.777344 216.992188 135.5 226.972656 L 187.5 305.472656 L 239.5 226.972656 " fill-opacity="1" fill-rule="nonzero"/></g><path fill="#ffffff" d="M 232.371094 192.015625 C 232.371094 216.796875 212.277344 236.898438 187.5 236.898438 C 162.714844 236.898438 142.621094 216.796875 142.621094 192.015625 C 142.621094 167.234375 162.714844 147.148438 187.5 147.148438 C 212.277344 147.148438 232.371094 167.234375 232.371094 192.015625 " fill-opacity="1" fill-rule="nonzero"/><g fill="#ffffff" fill-opacity="1"><g transform="translate(87.153959, 188.314613)"><g><path d="M -28.328125 -18.796875 C -28.148438 -20.492188 -27.582031 -21.972656 -26.625 -23.234375 C -25.675781 -24.492188 -24.476562 -25.441406 -23.03125 -26.078125 C -21.59375 -26.722656 -20.039062 -26.960938 -18.375 -26.796875 C -16.707031 -26.617188 -15.242188 -26.066406 -13.984375 -25.140625 C -12.734375 -24.222656 -11.796875 -23.050781 -11.171875 -21.625 C -10.554688 -20.207031 -10.335938 -18.648438 -10.515625 -16.953125 L -11.15625 -10.8125 L 0.984375 -9.546875 L 0.3125 -2.953125 L -29.640625 -6.0625 Z M -16.0625 -16.453125 C -15.945312 -17.515625 -16.148438 -18.425781 -16.671875 -19.1875 C -17.191406 -19.957031 -17.957031 -20.394531 -18.96875 -20.5 C -19.925781 -20.59375 -20.75 -20.316406 -21.4375 -19.671875 C -22.132812 -19.035156 -22.539062 -18.1875 -22.65625 -17.125 L -23.1875 -12.046875 L -16.59375 -11.375 Z M -16.0625 -16.453125 "/></g></g></g><g fill="#ffffff" fill-opacity="1"><g transform="translate(91.438273, 157.401866)"><g><path d="M -13.859375 -29.203125 L -18.40625 -18.65625 L -12.59375 -16.15625 L -8.703125 -25.1875 L -3.34375 -22.875 L -7.234375 -13.84375 L -1.4375 -11.34375 L 3.109375 -21.890625 L 8.453125 -19.578125 L 1.28125 -2.953125 L -26.359375 -14.875 L -19.1875 -31.5 Z M -13.859375 -29.203125 "/></g></g></g><g fill="#ffffff" fill-opacity="1"><g transform="translate(104.048172, 130.489816)"><g><path d="M 8.265625 -9.0625 C 6.546875 -7.039062 4.535156 -5.691406 2.234375 -5.015625 C -0.0546875 -4.335938 -2.234375 -4.238281 -4.296875 -4.71875 L -3.328125 -11.09375 C -2.078125 -10.769531 -0.84375 -10.765625 0.375 -11.078125 C 1.59375 -11.398438 2.648438 -12.085938 3.546875 -13.140625 C 4.296875 -14.023438 4.691406 -14.878906 4.734375 -15.703125 C 4.785156 -16.523438 4.492188 -17.207031 3.859375 -17.75 C 3.191406 -18.320312 2.4375 -18.523438 1.59375 -18.359375 C 0.75 -18.203125 -0.148438 -17.835938 -1.109375 -17.265625 C -2.066406 -16.703125 -3.09375 -16.109375 -4.1875 -15.484375 C -5.28125 -14.859375 -6.421875 -14.359375 -7.609375 -13.984375 C -8.796875 -13.609375 -10.015625 -13.515625 -11.265625 -13.703125 C -12.515625 -13.890625 -13.789062 -14.539062 -15.09375 -15.65625 C -16.613281 -16.945312 -17.566406 -18.375 -17.953125 -19.9375 C -18.347656 -21.5 -18.304688 -23.054688 -17.828125 -24.609375 C -17.359375 -26.160156 -16.613281 -27.535156 -15.59375 -28.734375 C -14.375 -30.160156 -12.941406 -31.226562 -11.296875 -31.9375 C -9.660156 -32.65625 -8.003906 -33.019531 -6.328125 -33.03125 L -5.984375 -26.9375 C -7.109375 -26.925781 -8.109375 -26.742188 -8.984375 -26.390625 C -9.867188 -26.046875 -10.59375 -25.546875 -11.15625 -24.890625 C -11.6875 -24.273438 -11.976562 -23.617188 -12.03125 -22.921875 C -12.09375 -22.234375 -11.796875 -21.609375 -11.140625 -21.046875 C -10.472656 -20.484375 -9.734375 -20.296875 -8.921875 -20.484375 C -8.109375 -20.671875 -7.21875 -21.039062 -6.25 -21.59375 C -5.289062 -22.15625 -4.265625 -22.742188 -3.171875 -23.359375 C -2.085938 -23.972656 -0.9375 -24.445312 0.28125 -24.78125 C 1.5 -25.125 2.765625 -25.175781 4.078125 -24.9375 C 5.398438 -24.707031 6.773438 -23.984375 8.203125 -22.765625 C 9.628906 -21.546875 10.539062 -20.140625 10.9375 -18.546875 C 11.332031 -16.953125 11.285156 -15.328125 10.796875 -13.671875 C 10.316406 -12.023438 9.472656 -10.488281 8.265625 -9.0625 Z M 8.265625 -9.0625 "/></g></g></g><g fill="#ffffff" fill-opacity="1"><g transform="translate(123.998009, 108.124155)"><g><path d="M 18.28125 -11.109375 L 13.734375 -14.984375 L 4.125 -9.140625 L 5.484375 -3.328125 L -0.5625 0.34375 L -6.9375 -31.03125 L -0.578125 -34.890625 L 24.3125 -14.78125 Z M 2.765625 -14.765625 L 9.375 -18.78125 L -0.125 -27 Z M 2.765625 -14.765625 "/></g></g></g><g fill="#ffffff" fill-opacity="1"><g transform="translate(152.974574, 91.07843)"><g><path d="M 18.78125 -34.046875 L 25.265625 -35.21875 L 30.671875 -5.59375 L 23.953125 -4.375 L 5.84375 -21.375 L 9.4375 -1.71875 L 2.921875 -0.53125 L -2.484375 -30.15625 L 4.21875 -31.375 L 22.359375 -14.4375 Z M 18.78125 -34.046875 "/></g></g></g><g fill="#ffffff" fill-opacity="1"><g transform="translate(192.266606, 85.257142)"><g><path d="M 27.40625 -25.140625 L 33.84375 -23.828125 L 27.828125 5.671875 L 21.390625 4.359375 L 23.8125 -7.53125 L 11.828125 -9.96875 L 9.40625 1.921875 L 2.90625 0.59375 L 8.921875 -28.90625 L 15.421875 -27.578125 L 13 -15.734375 L 24.984375 -13.296875 Z M 27.40625 -25.140625 "/></g></g></g><g fill="#ffffff" fill-opacity="1"><g transform="translate(228.394389, 93.409952)"><g><path d="M 14.21875 9.90625 C 12.4375 8.726562 10.988281 7.289062 9.875 5.59375 C 8.769531 3.894531 8.019531 2.054688 7.625 0.078125 C 7.226562 -1.890625 7.207031 -3.867188 7.5625 -5.859375 C 7.914062 -7.847656 8.679688 -9.738281 9.859375 -11.53125 C 11.046875 -13.300781 12.488281 -14.738281 14.1875 -15.84375 C 15.882812 -16.957031 17.71875 -17.710938 19.6875 -18.109375 C 21.65625 -18.515625 23.632812 -18.535156 25.625 -18.171875 C 27.625 -17.816406 29.515625 -17.050781 31.296875 -15.875 C 33.078125 -14.6875 34.523438 -13.238281 35.640625 -11.53125 C 36.765625 -9.832031 37.519531 -8 37.90625 -6.03125 C 38.289062 -4.070312 38.304688 -2.09375 37.953125 -0.09375 C 37.597656 1.894531 36.828125 3.773438 35.640625 5.546875 C 34.460938 7.335938 33.023438 8.785156 31.328125 9.890625 C 29.628906 10.992188 27.800781 11.75 25.84375 12.15625 C 23.882812 12.570312 21.898438 12.597656 19.890625 12.234375 C 17.890625 11.867188 16 11.09375 14.21875 9.90625 Z M 17.796875 4.5 C 19.210938 5.445312 20.703125 5.960938 22.265625 6.046875 C 23.828125 6.140625 25.3125 5.835938 26.71875 5.140625 C 28.125 4.453125 29.296875 3.394531 30.234375 1.96875 C 31.179688 0.550781 31.703125 -0.9375 31.796875 -2.5 C 31.890625 -4.070312 31.585938 -5.554688 30.890625 -6.953125 C 30.191406 -8.359375 29.132812 -9.535156 27.71875 -10.484375 C 26.320312 -11.398438 24.84375 -11.90625 23.28125 -12 C 21.71875 -12.101562 20.234375 -11.804688 18.828125 -11.109375 C 17.421875 -10.410156 16.242188 -9.351562 15.296875 -7.9375 C 14.359375 -6.507812 13.84375 -5.015625 13.75 -3.453125 C 13.65625 -1.890625 13.957031 -0.40625 14.65625 1 C 15.351562 2.414062 16.398438 3.582031 17.796875 4.5 Z M 17.796875 4.5 "/></g></g></g><g fill="#ffffff" fill-opacity="1"><g transform="translate(260.927567, 117.517374)"><g><path d="M 37 -0.984375 L 32.328125 2.546875 L 27.75 -3.5 L 8.40625 11.125 L 4.453125 5.890625 L 23.796875 -8.734375 L 19.1875 -14.828125 L 23.859375 -18.359375 Z M 37 -0.984375 "/></g></g></g><g fill="#ffffff" fill-opacity="1"><g transform="translate(277.024465, 140.102298)"><g><path d="M 30.25 11.40625 L 26.203125 0.65625 L 20.28125 2.890625 L 23.734375 12.078125 L 18.28125 14.125 L 14.828125 4.9375 L 8.921875 7.171875 L 12.96875 17.921875 L 7.515625 19.96875 L 1.140625 3.015625 L 29.328125 -7.578125 L 35.703125 9.375 Z M 30.25 11.40625 "/></g></g></g><g fill="#ffffff" fill-opacity="1"><g transform="translate(286.437354, 168.448757)"><g><path d="M 6.625 9.09375 L 7.421875 19.046875 L 1.5625 19.515625 L 0.234375 2.953125 L 30.25 0.5625 L 30.78125 7.171875 Z M 6.625 9.09375 "/></g></g></g><g clip-path="url(#ce1f56420e)"><path fill="#ff3131" d="M 198.390625 202.882812 L 207.289062 195.488281 Z M 207.289062 198.269531 L 200.648438 203.929688 Z M 194.769531 175.835938 L 197.25 177.875 Z M 203.734375 195.203125 L 198.390625 199.851562 Z M 167.039062 231.890625 L 167.039062 198.65625 L 170.933594 201.902344 L 173.828125 204.328125 L 173.828125 231.363281 C 171.539062 231.511719 169.28125 231.683594 167.039062 231.890625 Z M 176.265625 231.226562 L 176.265625 203.542969 L 173.828125 201.480469 L 170.933594 199.042969 L 167.039062 195.761719 L 161.707031 200.878906 L 161.707031 232.457031 C 154.871094 233.257812 148.273438 234.382812 141.9375 235.785156 C 156.464844 234.371094 171.730469 233.621094 187.5 233.621094 C 203.257812 233.621094 218.523438 234.371094 233.058594 235.785156 C 226.519531 234.339844 219.683594 233.1875 212.621094 232.378906 L 212.621094 200.214844 L 207.289062 195.488281 L 203.734375 198.4375 L 198.777344 202.550781 L 198.390625 202.882812 L 198.390625 231.214844 C 197.261719 231.160156 196.136719 231.113281 195.007812 231.078125 L 195.007812 183.421875 L 198.390625 186.203125 L 198.390625 199.851562 L 198.777344 199.511719 L 203.734375 195.203125 L 203.734375 183.195312 L 198.777344 179.128906 L 198.390625 178.808594 L 197.25 177.875 L 195.007812 176.027344 L 194.769531 175.835938 L 193.445312 174.742188 L 189.664062 171.640625 L 189.664062 230.964844 C 188.945312 230.953125 188.21875 230.953125 187.5 230.953125 C 186.703125 230.953125 185.90625 230.953125 185.105469 230.964844 L 185.105469 155.566406 L 189.664062 159.03125 L 193.445312 161.914062 L 193.445312 172.472656 L 195.007812 173.921875 L 195.007812 161.070312 L 193.445312 159.863281 L 189.664062 156.933594 L 185.105469 153.402344 L 179.773438 158.085938 L 176.265625 161.171875 L 173.828125 163.3125 L 170.933594 165.855469 L 170.933594 195.203125 L 173.828125 197.734375 L 176.265625 199.875 L 176.265625 168.578125 L 179.773438 165.742188 L 179.773438 231.078125 C 178.601562 231.125 177.429688 231.171875 176.265625 231.226562 Z M 200.589844 231.332031 C 202.847656 231.46875 205.078125 231.625 207.289062 231.832031 L 207.289062 198.269531 L 203.734375 201.296875 L 200.648438 203.929688 Z M 200.589844 231.332031 " fill-opacity="1" fill-rule="evenodd"/></g></svg>